name C:/MyDriveSym/Projects/mobilecap/Data\Session20210816_0002\mocap\ForceDataProcessed\walkingTS2_forces.mot
datacolumns 19
datarows 22
range 0.00000000 0.01050000
endheader 
time	R_ground_force_vx	R_ground_force_vy	R_ground_force_vz	R_ground_force_px	R_ground_force_py	R_ground_force_pz	R_ground_torque_x	R_ground_torque_y	R_ground_torque_z	L_ground_force_vx	L_ground_force_vy	L_ground_force_vz	L_ground_force_px	L_ground_force_py	L_ground_force_pz	L_ground_torque_x	L_ground_torque_y	L_ground_torque_z	
          0.00000000	        -82.70329000	        447.67928700	        -15.68273300	          0.12759300	          0.00600000	         -0.14812600	          0.00000000	         -1.73886500	          0.00000000	          0.00000000	          0.00000000	          0.00000000	          0.71822700	          0.00000000	         -0.17026000	          0.00000000	          0.00000000	          0.00000000	
          0.00050000	        -82.65683600	        448.14228900	        -15.65378700	          0.12759300	          0.00600000	         -0.14812600	          0.00000000	         -1.73047300	          0.00000000	          0.00000000	          0.00000000	          0.00000000	          0.71822700	          0.00000000	         -0.17026000	          0.00000000	          0.00000000	          0.00000000	
          0.00100000	        -82.60975100	        448.60841600	        -15.62462300	          0.12759300	          0.00600000	         -0.14812600	          0.00000000	         -1.72202600	          0.00000000	          0.00000000	          0.00000000	          0.00000000	          0.71822700	          0.00000000	         -0.17026000	          0.00000000	          0.00000000	          0.00000000	
          0.00150000	        -82.56203000	        449.07765100	        -15.59524300	          0.12759300	          0.00600000	         -0.14812600	          0.00000000	         -1.71352300	          0.00000000	          0.00000000	          0.00000000	          0.00000000	          0.71822700	          0.00000000	         -0.17026000	          0.00000000	          0.00000000	          0.00000000	
          0.00200000	        -82.51367000	        449.54997600	        -15.56564800	          0.12769100	          0.00600000	         -0.14811800	          0.00000000	         -1.70496400	          0.00000000	          0.00000000	          0.00000000	          0.00000000	          0.71822700	          0.00000000	         -0.17026000	          0.00000000	          0.00000000	          0.00000000	
          0.00250000	        -82.46466800	        450.02537200	        -15.53584000	          0.12779000	          0.00600000	         -0.14811000	          0.00000000	         -1.69635100	          0.00000000	          0.00000000	          0.00000000	          0.00000000	          0.71822700	          0.00000000	         -0.17026000	          0.00000000	          0.00000000	          0.00000000	
          0.00300000	        -82.41501800	        450.50381900	        -15.50581800	          0.12789100	          0.00600000	         -0.14810200	          0.00000000	         -1.68768300	          0.00000000	          0.00000000	          0.00000000	          0.00000000	          0.71822700	          0.00000000	         -0.17026000	          0.00000000	          0.00000000	          0.00000000	
          0.00350000	        -82.36471800	        450.98529600	        -15.47558500	          0.12799200	          0.00600000	         -0.14809400	          0.00000000	         -1.67896000	          0.00000000	          0.00000000	          0.00000000	          0.00000000	          0.71822700	          0.00000000	         -0.17026000	          0.00000000	          0.00000000	          0.00000000	
          0.00400000	        -82.31376400	        451.46978200	        -15.44514200	          0.12809300	          0.00600000	         -0.14808600	          0.00000000	         -1.67018400	          0.00000000	          0.00000000	          0.00000000	          0.00000000	          0.71822700	          0.00000000	         -0.17026000	          0.00000000	          0.00000000	          0.00000000	
          0.00450000	        -82.26215200	        451.95725500	        -15.41449000	          0.12819600	          0.00600000	         -0.14807800	          0.00000000	         -1.66135500	          0.00000000	          0.00000000	          0.00000000	          0.00000000	          0.71822700	          0.00000000	         -0.17026000	          0.00000000	          0.00000000	          0.00000000	
          0.00500000	        -82.20987800	        452.44769300	        -15.38363200	          0.12829900	          0.00600000	         -0.14806900	          0.00000000	         -1.65247300	          0.00000000	          0.00000000	          0.00000000	          0.00000000	          0.71822700	          0.00000000	         -0.17026000	          0.00000000	          0.00000000	          0.00000000	
          0.00550000	        -82.15693900	        452.94107200	        -15.35256800	          0.12840300	          0.00600000	         -0.14806100	          0.00000000	         -1.64353900	          0.00000000	          0.00000000	          0.00000000	          0.00000000	          0.71822700	          0.00000000	         -0.17026000	          0.00000000	          0.00000000	          0.00000000	
          0.00600000	        -82.10333200	        453.43737000	        -15.32130100	          0.12850800	          0.00600000	         -0.14805200	          0.00000000	         -1.63455200	          0.00000000	          0.00000000	          0.00000000	          0.00000000	          0.71822700	          0.00000000	         -0.17026000	          0.00000000	          0.00000000	          0.00000000	
          0.00650000	        -82.04905100	        453.93656000	        -15.28983200	          0.12861400	          0.00600000	         -0.14804300	          0.00000000	         -1.62551400	          0.00000000	          0.00000000	          0.00000000	          0.00000000	          0.71822700	          0.00000000	         -0.17026000	          0.00000000	          0.00000000	          0.00000000	
          0.00700000	        -81.99409500	        454.43861900	        -15.25816400	          0.12872100	          0.00600000	         -0.14803400	          0.00000000	         -1.61642600	          0.00000000	          0.00000000	          0.00000000	          0.00000000	          0.71822700	          0.00000000	         -0.17026000	          0.00000000	          0.00000000	          0.00000000	
          0.00750000	        -81.93845900	        454.94352000	        -15.22629900	          0.12882800	          0.00600000	         -0.14802500	          0.00000000	         -1.60728700	          0.00000000	          0.00000000	          0.00000000	          0.00000000	          0.71822700	          0.00000000	         -0.17026000	          0.00000000	          0.00000000	          0.00000000	
          0.00800000	        -81.88214000	        455.45123800	        -15.19424000	          0.12893600	          0.00600000	         -0.14801600	          0.00000000	         -1.59809800	          0.00000000	          0.00000000	          0.00000000	          0.00000000	          0.71822700	          0.00000000	         -0.17026000	          0.00000000	          0.00000000	          0.00000000	
          0.00850000	        -81.82513400	        455.96174400	        -15.16198800	          0.12904500	          0.00600000	         -0.14800700	          0.00000000	         -1.58886000	          0.00000000	          0.00000000	          0.00000000	          0.00000000	          0.71822700	          0.00000000	         -0.17026000	          0.00000000	          0.00000000	          0.00000000	
          0.00900000	        -81.76743900	        456.47501200	        -15.12954600	          0.12915400	          0.00600000	         -0.14799700	          0.00000000	         -1.57957200	          0.00000000	          0.00000000	          0.00000000	          0.00000000	          0.71822700	          0.00000000	         -0.17026000	          0.00000000	          0.00000000	          0.00000000	
          0.00950000	        -81.70905000	        456.99101200	        -15.09691800	          0.12926500	          0.00600000	         -0.14798800	          0.00000000	         -1.57023700	          0.00000000	          0.00000000	          0.00000000	          0.00000000	          0.71822700	          0.00000000	         -0.17026000	          0.00000000	          0.00000000	          0.00000000	
          0.01000000	        -81.64996500	        457.50971600	        -15.06410600	          0.12937600	          0.00600000	         -0.14797800	          0.00000000	         -1.56085400	          0.00000000	          0.00000000	          0.00000000	          0.00000000	          0.71822700	          0.00000000	         -0.17026000	          0.00000000	          0.00000000	          0.00000000	
          0.01050000	        -81.59017900	        458.03109500	        -15.03111300	          0.12948800	          0.00600000	         -0.14796800	          0.00000000	         -1.55142400	          0.00000000	          0.00000000	          0.00000000	          0.00000000	          0.71822700	          0.00000000	         -0.17026000	          0.00000000	          0.00000000	          0.00000000	
